<svg width="14" height="14" viewBox="0 0 14 14" fill="none" xmlns="http://www.w3.org/2000/svg">
<path d="M13.7747 1.71327C13.2657 1.99468 12.726 2.1795 12.1734 2.26161C12.7559 1.82613 13.1918 1.14078 13.4 0.333272C12.8534 0.739939 12.254 1.02494 11.6294 1.17911C11.2098 0.617921 10.6536 0.245741 10.0473 0.120426C9.44107 -0.00488923 8.81866 0.123681 8.27688 0.48615C7.7351 0.848618 7.30429 1.42467 7.05145 2.12477C6.7986 2.82486 6.73787 3.60976 6.8787 4.35744C5.77011 4.28798 4.68559 3.92787 3.69556 3.30049C2.70553 2.67311 1.83212 1.79248 1.13204 0.715772C0.884229 1.24781 0.754005 1.85263 0.754702 2.46827C0.754702 3.6766 1.2467 4.7441 1.9947 5.3691C1.55204 5.35169 1.11912 5.20226 0.732035 4.93327V4.9766C0.732169 5.78135 0.954948 6.56128 1.3626 7.18415C1.77025 7.80702 2.33769 8.2345 2.9687 8.3941C2.55778 8.5333 2.12691 8.55382 1.7087 8.4541C1.88661 9.1468 2.23337 9.7526 2.70043 10.1867C3.16749 10.6208 3.73145 10.8614 4.31337 10.8749C3.73502 11.4427 3.07282 11.8624 2.36462 12.1101C1.65642 12.3577 0.91612 12.4285 0.186035 12.3183C1.4605 13.3428 2.9441 13.8867 4.45937 13.8849C9.58804 13.8849 12.3927 8.5741 12.3927 3.96827C12.3927 3.81827 12.3894 3.6666 12.384 3.51827C12.9299 3.02508 13.4011 2.41412 13.7754 1.71411L13.7747 1.71327Z" fill="#1374F6"/>
</svg>
